<svg width="108" height="108" viewBox="0 0 108 108" fill="none" xmlns="http://www.w3.org/2000/svg">
<g filter="url(#filter0_d_11_130)">
<circle cx="54" cy="50" r="50" fill="url(#paint0_linear_11_130)"/>
<path fill-rule="evenodd" clip-rule="evenodd" d="M49.801 25.0111C48.5121 25.3037 46.6333 25.6156 45.6258 25.7039C41.428 26.0728 39.4797 26.567 37.1953 27.8425C36.4664 28.2493 35.6913 28.5821 35.473 28.5821C35.2544 28.5821 33.9506 29.1562 32.5758 29.8576C31.2009 30.559 29.9418 31.1582 29.7778 31.1886C28.8754 31.3562 24.1506 34.7685 22.7074 36.2948C21.7832 37.2727 20.967 38.0129 20.8939 37.9396C20.7377 37.7833 17.9978 40.51 17.9978 40.8216C17.9978 40.9385 17.461 41.6039 16.8049 42.3005C16.1488 42.9972 15.612 43.6849 15.612 43.8287C15.612 43.9724 15.3517 44.0899 15.0332 44.0899C14.3323 44.0899 13.9423 44.627 14.3487 45.0335C14.6902 45.375 14.3947 46.9404 13.6536 48.7142C12.9787 50.3297 12.3339 54.4897 12.3327 57.2396L12.3315 59.5038L13.443 59.323C14.2214 59.1966 14.667 58.9201 14.9297 58.4009C15.1361 57.9929 15.3069 57.7514 15.3093 57.8644C15.3117 57.9771 16.8157 56.5343 18.651 54.6585C20.4865 52.7823 22.1641 51.2473 22.3788 51.2473C22.5938 51.2473 22.7695 50.9933 22.7695 50.6828C22.7695 50.3724 22.9854 50.0354 23.2493 49.934C23.6218 49.7911 23.685 49.5138 23.5317 48.6966C23.3692 47.8309 23.4697 47.4822 24.0957 46.7385C24.5144 46.2407 24.8571 45.6425 24.8571 45.409C24.8571 45.1754 24.9757 44.9846 25.1204 44.9846C25.2653 44.9846 25.4541 44.7162 25.54 44.3881C25.6256 44.0601 25.8293 43.7917 25.9924 43.7917C26.1552 43.7917 27.063 45.3481 28.0093 47.2508C28.9559 49.1532 29.9183 50.8978 30.1482 51.1278C30.7205 51.7004 31.3998 51.652 31.6176 51.0237C32.6005 48.1887 35.7453 42.4732 36.1759 42.7395C36.2991 42.8156 36.4831 43.7878 36.5851 44.9005C37.0387 49.8528 39.1024 52.9141 40.2062 50.2721C40.4304 49.7359 41.0221 48.8302 41.5214 48.2591C42.0209 47.6883 43.1893 45.9464 44.1183 44.3881C45.811 41.549 46.8137 40.2997 47.1393 40.6251C47.2348 40.7208 47.159 41.733 46.9703 42.8746C46.7818 44.0162 46.6276 45.6135 46.6276 46.4244C46.6276 47.6612 46.7457 47.9755 47.3615 48.379C47.788 48.6587 48.23 49.3602 48.4169 50.0544C48.734 51.2315 49.9042 52.3639 50.4529 52.0248C50.6029 51.9321 50.8099 51.4358 50.9125 50.922C51.0154 50.4084 51.7371 49.0578 52.5167 47.9209C53.2962 46.7841 54.1399 45.4814 54.3916 45.0263C55.0558 43.8248 56.0641 42.5988 56.3882 42.5988C56.552 42.5988 56.6101 43.6118 56.5278 45.0341C56.3617 47.9009 56.8189 49.0706 58.4478 49.948L59.471 50.4988L60.2768 49.4565C60.7203 48.8833 61.8902 47.532 62.8768 46.4536C63.8633 45.3753 64.9268 44.1674 65.2402 43.7696C66.4558 42.226 67.6287 40.9409 68.1831 40.5458C68.7059 40.173 68.7441 40.1894 68.5771 40.7155C68.2433 41.7667 68.323 47.1742 68.7071 49.5549C69.0107 51.4361 69.2191 51.9771 69.7825 52.3463C70.5755 52.8661 71.3804 52.6872 71.3804 51.9914C71.3804 51.5152 73.5407 48.5502 75.5711 46.2401L76.6954 44.961L76.9101 47.2839C77.1815 50.2206 77.4365 50.8859 78.3807 51.123C79.046 51.2897 79.5065 50.9411 82.113 48.2982C83.7481 46.6397 85.1793 45.2828 85.2926 45.2828C85.4063 45.2828 85.7361 45.0684 86.0257 44.8062C86.7238 44.1743 87.0752 44.4433 87.3254 45.8014C87.6525 47.5792 88.574 49.4094 89.5591 50.2381C90.1144 50.7055 90.4669 51.2849 90.4669 51.7305C90.4669 52.1313 90.6813 52.5414 90.9431 52.6419C91.2053 52.7424 91.6595 53.3755 91.9526 54.0489C92.5801 55.4905 94.2505 57.5101 94.8156 57.5101C95.4374 57.5101 95.6876 55.6164 95.6632 51.0982C95.6408 47.0283 95.1299 44.0064 94.291 42.9859C94.1288 42.7887 94.076 42.376 94.1735 42.0688C94.303 41.6614 94.0062 41.2123 93.0799 40.4116C92.3809 39.8077 91.6747 39.1805 91.5107 39.018C89.9724 37.4937 85.7057 33.9901 85.1913 33.8282C84.7365 33.6854 84.5098 33.3418 84.4457 32.6982C84.3192 31.4323 83.5355 30.9691 82.7392 31.6896C82.1786 32.1969 82.0626 32.2032 81.1562 31.7746C80.6182 31.5202 79.7755 31.2137 79.2834 31.0929C78.7913 30.9724 77.7848 30.6115 77.0467 30.2912C76.3086 29.9706 74.9666 29.5317 74.0644 29.3151C73.1623 29.0989 69.8072 28.0363 66.6088 26.9538C63.4103 25.8712 60.3236 24.8587 59.7496 24.7034C58.0604 24.2465 52.3968 24.4218 49.801 25.0111ZM67.2052 28.2839C67.5688 28.5189 67.5303 28.5738 66.9991 28.5776C66.6398 28.58 66.2628 28.4479 66.1614 28.2839C65.9267 27.9042 66.6177 27.9042 67.2052 28.2839ZM76.3023 31.2682C76.6325 31.8021 75.529 31.964 75.0211 31.4561C74.5693 31.004 74.5917 30.9679 75.325 30.9679C75.7604 30.9679 76.2003 31.103 76.3023 31.2682ZM73.6016 32.0072C74.1658 32.1322 74.3501 32.2825 74.1166 32.4268C73.561 32.7701 71.9768 32.4447 71.9768 31.9873C71.9768 31.7651 72.1447 31.6348 72.3496 31.698C72.5548 31.7612 73.1182 31.9002 73.6016 32.0072ZM79.3621 32.1301C79.6469 32.2774 80.2153 32.5458 80.6254 32.7269C81.2588 33.0066 81.1688 33.0287 80.029 32.8724C78.5271 32.6666 78.2396 32.5494 78.2396 32.1432C78.2396 31.7895 78.6926 31.7842 79.3621 32.1301ZM40.3648 35.5555C40.3648 35.6185 40.0961 35.7401 39.7681 35.826C39.4397 35.9119 39.2462 35.8603 39.3383 35.7118C39.4988 35.4521 40.3648 35.3202 40.3648 35.5555ZM37.8287 36.3381C37.5529 36.7842 35.8914 37.5877 35.8914 37.2748C35.8914 36.9053 36.5159 36.4299 37.2335 36.2537C37.5615 36.1729 37.8714 36.0915 37.9221 36.0724C37.9728 36.0533 37.9307 36.1729 37.8287 36.3381ZM69.591 36.6166C69.591 36.7711 69.4568 36.9802 69.2928 37.0816C69.1288 37.183 68.9946 37.0565 68.9946 36.8009C68.9946 36.5454 69.1288 36.336 69.2928 36.336C69.4568 36.336 69.591 36.4622 69.591 36.6166ZM68.3981 37.8271C68.3981 37.9912 68.3391 38.1254 68.2666 38.1254C68.1941 38.1254 68.0522 37.9912 67.9508 37.8271C67.8494 37.6631 67.9087 37.5289 68.0823 37.5289C68.2559 37.5289 68.3981 37.6631 68.3981 37.8271ZM77.4958 38.4218C77.1979 38.7507 76.8072 39.0093 76.6277 38.9965C76.4392 38.9828 76.4586 38.9094 76.6739 38.8226C76.8791 38.7397 77.0467 38.4931 77.0467 38.2745C77.0467 38.0559 77.2146 37.817 77.4195 37.7436C78.0383 37.5226 78.0681 37.7893 77.4958 38.4218ZM33.8038 38.1009C33.8038 38.4725 31.7005 39.757 31.0208 39.8005C30.5699 39.8294 30.5439 39.7695 30.8717 39.4566C31.2126 39.1316 33.4964 37.8271 33.7248 37.8271C33.7684 37.8271 33.8038 37.9503 33.8038 38.1009ZM67.6845 38.5972C67.5849 38.8566 67.5034 39.125 67.5034 39.1936C67.5034 39.2622 67.3021 39.3183 67.0561 39.3183C66.5112 39.3183 66.4922 39.1274 66.9815 38.5715C67.4852 37.9995 67.9078 38.0147 67.6845 38.5972ZM22.9186 39.02C22.8172 39.1841 22.6001 39.3183 22.4361 39.3183C22.272 39.3183 22.2207 39.1841 22.3221 39.02C22.4235 38.856 22.6406 38.7218 22.8047 38.7218C22.9687 38.7218 23.02 38.856 22.9186 39.02ZM54.3815 39.9147C54.3815 40.0787 54.2473 40.213 54.0832 40.213C53.9192 40.213 53.785 40.0787 53.785 39.9147C53.785 39.7507 53.9192 39.6165 54.0832 39.6165C54.2473 39.6165 54.3815 39.7507 54.3815 39.9147ZM49.5091 41.4804C49.4264 41.6856 49.3587 41.5177 49.3587 41.1076C49.3587 40.6976 49.4264 40.53 49.5091 40.7348C49.592 40.94 49.592 41.2755 49.5091 41.4804ZM30.5234 43.1031C30.5234 43.3622 30.1956 43.8779 29.7948 44.2492L29.0665 44.9243L28.8434 43.9852C28.7209 43.4687 28.6529 42.9241 28.6928 42.7753C28.7328 42.6262 28.6144 42.4109 28.4295 42.2967C28.1972 42.1532 28.2565 41.926 28.621 41.5615C29.1256 41.0566 29.1787 41.0686 29.8359 41.8329C30.2141 42.2725 30.5234 42.8439 30.5234 43.1031ZM32.3673 41.7688C32.1535 41.9826 32.0145 42.0002 32.0145 41.8135C32.0145 41.4154 32.3673 41.0626 32.5662 41.2618C32.6509 41.3465 32.5614 41.5747 32.3673 41.7688ZM75.2797 43.1207C74.4843 44.6386 73.2711 46.0761 73.0069 45.814C72.74 45.5494 73.553 44.256 74.7817 42.9897C75.2892 42.4667 75.7411 42.0306 75.7852 42.0205C75.8296 42.0104 75.6021 42.5057 75.2797 43.1207ZM33.3297 43.2698C33.2137 43.475 32.8785 43.911 32.5847 44.239C32.2909 44.5671 32.0339 44.9697 32.0133 45.1337C31.939 45.7239 30.671 48.2651 30.4506 48.2651C30.3265 48.2651 30.2251 47.7995 30.2251 47.2305C30.2251 46.3952 30.1312 46.2324 29.7372 46.3836C29.402 46.5121 29.2929 46.4393 29.3886 46.1518C29.4655 45.9213 29.7187 45.7322 29.9514 45.7313C30.7315 45.729 31.512 45.0636 31.571 44.35C31.6086 43.8978 31.8057 43.6575 32.1171 43.6834C32.3852 43.7058 32.5382 43.6166 32.4568 43.4854C32.3753 43.3539 32.4776 43.1782 32.6837 43.095C33.3401 42.8305 33.5468 42.8866 33.3297 43.2698ZM20.5009 43.667C20.7752 44.3822 20.7305 44.4236 20.1048 44.0326C19.7872 43.8346 19.594 43.565 19.6751 43.4338C19.9134 43.0482 20.3061 43.1591 20.5009 43.667ZM24.0775 45.3574C23.5276 46.4307 23.0826 46.8184 22.6833 46.5714C22.4671 46.4378 24.15 44.3881 24.4759 44.3881C24.5299 44.3881 24.3507 44.8244 24.0775 45.3574ZM59.4513 46.7739C59.4513 46.938 59.3171 47.0722 59.1531 47.0722C58.9891 47.0722 58.8549 46.938 58.8549 46.7739C58.8549 46.6099 58.9891 46.4757 59.1531 46.4757C59.3171 46.4757 59.4513 46.6099 59.4513 46.7739Z" fill="white"/>
</g>
<defs>
<filter id="filter0_d_11_130" x="0" y="0" width="108" height="108" filterUnits="userSpaceOnUse" color-interpolation-filters="sRGB">
<feFlood flood-opacity="0" result="BackgroundImageFix"/>
<feColorMatrix in="SourceAlpha" type="matrix" values="0 0 0 0 0 0 0 0 0 0 0 0 0 0 0 0 0 0 127 0" result="hardAlpha"/>
<feOffset dy="4"/>
<feGaussianBlur stdDeviation="2"/>
<feComposite in2="hardAlpha" operator="out"/>
<feColorMatrix type="matrix" values="0 0 0 0 0 0 0 0 0 0 0 0 0 0 0 0 0 0 0.25 0"/>
<feBlend mode="normal" in2="BackgroundImageFix" result="effect1_dropShadow_11_130"/>
<feBlend mode="normal" in="SourceGraphic" in2="effect1_dropShadow_11_130" result="shape"/>
</filter>
<linearGradient id="paint0_linear_11_130" x1="54" y1="0" x2="54" y2="100" gradientUnits="userSpaceOnUse">
<stop stop-color="#FB40FF"/>
<stop offset="1" stop-color="#0057A8"/>
</linearGradient>
</defs>
</svg>
