<svg width="108" height="108" viewBox="0 0 108 108" fill="none" xmlns="http://www.w3.org/2000/svg">
<g filter="url(#filter0_d_24_2)">
<circle cx="54" cy="50" r="50" fill="url(#paint0_linear_24_2)"/>
<path fill-rule="evenodd" clip-rule="evenodd" d="M40.3567 38.8233C37.4672 39.8672 28.5678 44.7633 26.2411 46.5894C25.0795 47.5011 24.87 48.2144 24.6517 52.015C24.4322 55.8306 24.5378 56.515 25.4761 57.3617C27.3917 59.0894 34.4867 59.5922 52.7794 59.2961C70.1849 59.0145 76.7088 58.3411 81.8088 56.3006C83.9321 55.4506 83.9677 55.3889 83.9677 52.5272C83.9677 48.6622 83.0894 47.9433 77.1988 46.99C68.2333 45.5383 60.7511 43.1778 53.1844 39.4128C49.2555 37.4578 44.7128 37.2494 40.3567 38.8233ZM50.7933 43.3933C51.6689 44.4744 51.8183 45.38 51.64 48.5317C51.3578 53.525 50.1733 54.6839 45.7283 54.315C44.0311 54.1745 42.5283 53.7322 42.2278 53.285C41.9383 52.8545 41.775 50.5895 41.8639 48.2528C42.0789 42.6361 43.0333 41.4372 46.9872 41.8172C48.9983 42.0106 50.0144 42.4311 50.7933 43.3933ZM38.8378 43.4739C39.7528 44.6061 40.1872 49.5456 39.6006 52.1561C39.3006 53.4911 39.1883 54.9294 39.3506 55.3528C39.7506 56.3956 42.1433 56.935 43.0461 56.1861C43.4494 55.8511 45.4644 55.6295 47.5405 55.6911C50.6839 55.7839 51.4311 55.6278 52.08 54.7406C52.5072 54.1561 52.8566 53.3511 52.8566 52.9511C52.8566 52.5511 53.1222 52.2239 53.4472 52.2239C53.7716 52.2239 53.9594 52.7661 53.8639 53.4283C53.7311 54.3483 54.0622 54.7339 55.2644 55.0595C56.8089 55.4778 69.4594 54.8639 74.6622 54.1178C76.8244 53.8078 77.301 53.8928 77.301 54.5889C77.301 55.7044 76.8199 55.8583 69.9505 56.9356C65.1966 57.6811 60.7927 57.8156 46.1267 57.6628C29.2372 57.4867 26.19 57.2439 26.19 56.075C26.19 55.2289 30.8406 54.3178 33.5356 54.6361C36.3833 54.9722 37.7178 54.1556 35.3083 53.5511C33.855 53.1861 33.8322 53.1122 34.1595 49.785L34.4933 46.3906L33.3972 47.7022C32.7945 48.4233 32.3011 49.5906 32.3011 50.2956C32.3011 52.5378 31.7028 53.335 30.0195 53.335C28.5717 53.335 28.4122 53.1533 28.4122 51.5033C28.4122 49.3661 31.0156 46.5189 35.0789 44.2122C37.9694 42.5711 38.0889 42.5478 38.8378 43.4739ZM44.6411 44.0294C43.8333 45.0072 43.2167 48.6922 43.6661 49.8583C43.9978 50.7189 44.1 50.7322 44.5272 49.9722C45.09 48.9695 45.9128 43.335 45.4961 43.335C45.3417 43.335 44.9567 43.6478 44.6411 44.0294ZM54.67 44.7783C55.1155 45.2233 54.5328 46.6683 53.9083 46.6683C53.6355 46.6683 53.4122 46.1683 53.4122 45.5572C53.4122 44.4744 54.0016 44.1094 54.67 44.7783ZM70.5094 47.3778C76.0494 49.4583 77.3661 50.9433 73.1049 50.3039C67.32 49.4367 61.19 46.9417 61.19 45.4544C61.19 44.54 65.1027 45.3478 70.5094 47.3778ZM58.6005 47.2839C58.5516 47.7089 58.3327 48.87 58.1144 49.8628C57.5722 52.3295 59.1739 52.3589 60.0316 49.8978C60.5077 48.5333 60.8 48.2783 61.3072 48.7856C62.1883 49.6667 62.0427 53.3606 61.1039 53.9556C60.08 54.6045 58.0044 54.5645 56.7089 53.8711C55.3455 53.1411 55.2305 49.1589 56.5194 47.3183C57.4511 45.9889 58.7527 45.9672 58.6005 47.2839ZM82.4572 49.1222C82.5977 49.7106 79.6088 50.8278 79.1422 50.3611C78.9705 50.19 78.9849 49.6472 79.1738 49.155C79.5372 48.2083 82.2327 48.1811 82.4572 49.1222ZM72.4899 52.1906C72.8016 52.5022 72.2349 52.8456 71.0399 53.07C68.3644 53.5717 67.0738 53.2422 66.8338 51.9956C66.6511 51.0456 66.8844 50.9806 69.3049 51.3128C70.7755 51.5139 72.2083 51.9089 72.4899 52.1906ZM83.1344 53.3428C83.1344 53.7967 82.5722 54.2483 81.8844 54.3461C80.6683 54.5183 80.1494 53.45 81.0238 52.575C81.671 51.9278 83.1344 52.46 83.1344 53.3428Z" fill="white"/>
</g>
<defs>
<filter id="filter0_d_24_2" x="0" y="0" width="108" height="108" filterUnits="userSpaceOnUse" color-interpolation-filters="sRGB">
<feFlood flood-opacity="0" result="BackgroundImageFix"/>
<feColorMatrix in="SourceAlpha" type="matrix" values="0 0 0 0 0 0 0 0 0 0 0 0 0 0 0 0 0 0 127 0" result="hardAlpha"/>
<feOffset dy="4"/>
<feGaussianBlur stdDeviation="2"/>
<feComposite in2="hardAlpha" operator="out"/>
<feColorMatrix type="matrix" values="0 0 0 0 0 0 0 0 0 0 0 0 0 0 0 0 0 0 0.25 0"/>
<feBlend mode="normal" in2="BackgroundImageFix" result="effect1_dropShadow_24_2"/>
<feBlend mode="normal" in="SourceGraphic" in2="effect1_dropShadow_24_2" result="shape"/>
</filter>
<linearGradient id="paint0_linear_24_2" x1="54" y1="0" x2="54" y2="100" gradientUnits="userSpaceOnUse">
<stop stop-color="#FB40FF"/>
<stop offset="1" stop-color="#0057A8"/>
</linearGradient>
</defs>
</svg>
