<svg width="108" height="108" viewBox="0 0 108 108" fill="none" xmlns="http://www.w3.org/2000/svg">
<g filter="url(#filter0_d_11_106)">
<circle cx="54" cy="50" r="50" fill="url(#paint0_linear_11_106)"/>
<path fill-rule="evenodd" clip-rule="evenodd" d="M62.4447 42.1723C60.2138 42.786 58.015 43.295 57.5581 43.3028C57.1015 43.311 56.4535 43.5283 56.1179 43.7862C55.5273 44.2403 55.5306 44.2696 56.2182 44.7213C57.0765 45.2845 57.0947 45.6355 56.3603 47.4279L55.7924 48.8136L54.2682 48.5946C53.2353 48.4462 52.1376 48.5639 50.861 48.9593C48.0504 49.8305 45.4521 50.4449 45.2185 50.2931C45.1049 50.2191 44.9339 49.1401 44.8392 47.8952C44.7363 46.5508 44.4682 45.4237 44.1785 45.1191C42.9684 43.8469 38.9699 44.374 36.8671 46.0824C36.453 46.4191 35.2848 46.9469 34.2711 47.2556C31.9103 47.9744 31.7315 48.1484 31.47 49.9806C31.2113 51.7958 31.1003 51.8166 27.7288 50.6885C24.0768 49.4665 13.9429 47.4559 13.5447 47.8744C12.9781 48.4704 14.7311 49.2854 19.4857 50.6377C25.2658 52.2809 29.7407 53.726 30.6714 54.2496C31.0812 54.4803 31.296 54.9725 31.3028 55.6957C31.3145 56.96 31.6773 57.5263 33.1898 58.6428L34.2759 59.4445L37.5534 58.8724C41.2884 58.2202 43.3481 57.3833 44.0636 56.2276C44.3355 55.7878 44.6604 54.6089 44.7853 53.608C44.9615 52.1963 45.1663 51.7262 45.6971 51.5137C46.8274 51.0614 51.13 50.3668 52.979 50.3378C54.2209 50.3184 54.8241 50.1447 55.1184 49.722C55.4751 49.2093 55.6075 49.1946 56.1468 49.6095C56.6897 50.0267 56.7182 50.2177 56.3778 51.1651C55.9362 52.3956 56.1653 57.8879 56.6874 58.5835C57.1852 59.2463 59.9045 59.0914 63.8661 58.1748C65.8507 57.7153 68.3105 57.1841 69.3323 56.9938C71.611 56.5701 73.142 55.7756 73.1881 54.9926C73.2072 54.6692 73.1946 53.3016 73.1605 51.9538L73.0979 49.503L74.5049 49.1032C75.2785 48.8835 77.3719 48.2405 79.1567 47.6742C80.9414 47.1079 82.8398 46.5778 83.3752 46.4955C91.947 45.1822 94.3262 44.4388 94.518 43.0132C94.6244 42.2231 94.58 42.2061 93.0577 42.4438C92.1942 42.5786 91.1227 42.7277 90.6765 42.7751C90.2303 42.8225 89.5002 42.9682 89.054 43.0985C88.6078 43.2291 87.2936 43.4679 86.1335 43.6293C84.9734 43.7907 83.2941 44.2191 82.4017 44.5807C80.5523 45.3309 77.3505 46.0371 75.9116 46.0122C75.3762 46.0029 74.4738 46.0995 73.9065 46.2267L72.8746 46.458L72.4862 44.3822C71.9199 41.3573 71.7336 41.1871 68.9066 41.1161C67.0933 41.0708 65.5022 41.3307 62.4447 42.1723ZM68.9299 43.9998C69.6464 43.9998 70.2328 43.8633 70.2328 43.6965C70.2328 43.5297 70.0505 43.4004 69.8272 43.4093C68.7421 43.4516 68.2858 43.2728 68.2858 42.8058C68.2858 42.4363 68.6463 42.2941 69.5838 42.2941C70.2977 42.2941 70.9915 42.289 71.1252 42.2828C71.2589 42.277 71.4552 42.9293 71.5613 43.7327C71.6675 44.5364 71.9342 45.6543 72.1542 46.2172C72.4287 46.9196 72.4839 48.0798 72.3304 49.9179C72.0156 53.6861 71.8109 54.3206 70.8666 54.454C70.4288 54.5161 69.0484 54.7961 67.7991 55.0762C63.9232 55.9458 57.524 56.7024 57.1722 56.3326C56.7861 55.9267 57.4802 46.7562 57.9416 46.1687C58.2924 45.7218 59.3496 45.2736 61.5517 44.6374C62.7946 44.2785 63.0571 44.0748 62.9091 43.5843C62.6787 42.8215 63.0584 42.7952 63.5753 43.5382C64.113 44.3112 65.4496 43.9152 66.0084 42.8174L66.4459 41.9577L67.0365 42.9787C67.5349 43.8401 67.8312 43.9998 68.9299 43.9998ZM43.7436 47.3259C44.062 48.4854 44.3384 53.1368 44.1304 53.8266C43.6807 55.3154 38.7813 57.2854 35.4948 57.2984C33.7918 57.3052 33.2395 56.8723 33.2395 55.5303C33.2395 54.7975 33.393 54.5751 33.8985 54.5751C34.961 54.5751 35.0846 53.5472 34.127 52.6811C33.6626 52.2615 33.0908 51.8436 32.8556 51.7525C32.1667 51.4851 33.1473 50.6841 35.2637 49.7855C37.1267 48.9944 37.7627 49.0186 37.2497 49.8616C36.6338 50.8744 36.2567 52.4935 36.5624 52.8148C37.2176 53.5036 39.7295 52.1629 39.7295 51.1248C39.7295 50.9873 39.3658 50.4204 38.9209 49.8646C37.9892 48.7007 38.0989 48.5206 40.3944 47.4504C42.2483 46.5863 43.5275 46.5385 43.7436 47.3259ZM36.4845 47.7523C36.4845 47.9399 36.3297 48.0934 36.1409 48.0934C35.952 48.0934 35.8874 47.9399 35.9977 47.7523C36.1081 47.5647 36.2625 47.4112 36.3414 47.4112C36.4202 47.4112 36.4845 47.5647 36.4845 47.7523ZM63.6347 49.6855C63.5156 49.8104 63.4183 50.2228 63.4183 50.6015C63.4183 50.9805 63.111 51.6341 62.7352 52.0548C61.5391 53.3934 62.7537 53.9975 64.9924 53.1771C65.864 52.8578 66.0143 52.6347 66.0143 51.6614C66.0143 50.2013 64.4106 48.8699 63.6347 49.6855Z" fill="white"/>
</g>
<defs>
<filter id="filter0_d_11_106" x="0" y="0" width="108" height="108" filterUnits="userSpaceOnUse" color-interpolation-filters="sRGB">
<feFlood flood-opacity="0" result="BackgroundImageFix"/>
<feColorMatrix in="SourceAlpha" type="matrix" values="0 0 0 0 0 0 0 0 0 0 0 0 0 0 0 0 0 0 127 0" result="hardAlpha"/>
<feOffset dy="4"/>
<feGaussianBlur stdDeviation="2"/>
<feComposite in2="hardAlpha" operator="out"/>
<feColorMatrix type="matrix" values="0 0 0 0 0 0 0 0 0 0 0 0 0 0 0 0 0 0 0.25 0"/>
<feBlend mode="normal" in2="BackgroundImageFix" result="effect1_dropShadow_11_106"/>
<feBlend mode="normal" in="SourceGraphic" in2="effect1_dropShadow_11_106" result="shape"/>
</filter>
<linearGradient id="paint0_linear_11_106" x1="54" y1="0" x2="54" y2="100" gradientUnits="userSpaceOnUse">
<stop stop-color="#FB40FF"/>
<stop offset="1" stop-color="#0057A8"/>
</linearGradient>
</defs>
</svg>
