<svg width="108" height="108" viewBox="0 0 108 108" fill="none" xmlns="http://www.w3.org/2000/svg">
<g filter="url(#filter0_d_11_140)">
<circle cx="54" cy="50" r="50" fill="url(#paint0_linear_11_140)"/>
<path fill-rule="evenodd" clip-rule="evenodd" d="M35.5003 37.7765C29.147 39.2721 23.9731 44.6771 24.0026 49.7865C24.0198 52.7987 25.6309 55.9365 28.7237 58.9826C32.1892 62.3959 34.4626 63.1048 39.0476 62.2026C43.3837 61.3498 44.6042 60.5487 46.0853 57.5826C47.7109 54.3282 48.0903 51.3421 47.3726 47.4587C46.4581 42.5115 45.6776 42.4204 46.047 47.3043C46.4881 53.1398 46.0331 54.9037 43.4009 57.5626C39.8898 61.1093 34.0781 62.1304 30.6303 59.8071C27.4731 57.6793 26.5137 55.3726 26.5015 49.8776C26.4881 44.1654 26.9642 43.4015 32.0459 40.981C35.907 39.1415 39.7509 38.8948 42.4903 40.3115C44.1698 41.1798 44.2242 41.1776 43.472 40.2704C42.6481 39.2771 38.8131 37.1276 38.0403 37.2254C37.7987 37.2565 36.6559 37.5043 35.5003 37.7765ZM70.5659 38.2048C64.8781 40.496 62.3237 43.5643 62.3237 48.1071C62.3237 51.8693 63.6298 55.9504 65.5792 58.2809L67.2064 60.2254L73.237 60.2076C82.8687 60.1787 84.5459 58.5965 84.5459 49.5404C84.5459 43.9204 83.7153 41.8048 80.4814 39.1876C77.8942 37.0937 74.2276 36.7298 70.5659 38.2048ZM80.0992 40.4154C83.9331 44.2493 83.2742 53.2021 78.8864 56.8943C75.6337 59.6309 68.1203 58.3815 65.1542 54.6104C63.7703 52.8515 63.5798 48.6726 64.7548 45.8604C66.2564 42.2665 71.7426 38.9765 76.3942 38.8804C78.0248 38.8465 78.8881 39.2048 80.0992 40.4154ZM69.087 44.0109C67.6681 45.5215 67.4514 48.9009 68.7064 49.9426C69.9464 50.9715 73.272 50.1571 74.312 48.5698C75.0175 47.4932 75.0553 47.0032 74.5142 45.9571C72.7287 42.5087 71.0603 41.9104 69.087 44.0109ZM30.142 45.8559C28.6953 47.6948 28.6959 48.3982 30.1459 49.7098C32.1998 51.5687 36.7131 50.891 36.7598 48.7171C36.7787 47.8226 33.2465 44.3921 32.3065 44.3921C31.7492 44.3921 30.7748 45.0509 30.142 45.8559Z" fill="white"/>
</g>
<defs>
<filter id="filter0_d_11_140" x="0" y="0" width="108" height="108" filterUnits="userSpaceOnUse" color-interpolation-filters="sRGB">
<feFlood flood-opacity="0" result="BackgroundImageFix"/>
<feColorMatrix in="SourceAlpha" type="matrix" values="0 0 0 0 0 0 0 0 0 0 0 0 0 0 0 0 0 0 127 0" result="hardAlpha"/>
<feOffset dy="4"/>
<feGaussianBlur stdDeviation="2"/>
<feComposite in2="hardAlpha" operator="out"/>
<feColorMatrix type="matrix" values="0 0 0 0 0 0 0 0 0 0 0 0 0 0 0 0 0 0 0.25 0"/>
<feBlend mode="normal" in2="BackgroundImageFix" result="effect1_dropShadow_11_140"/>
<feBlend mode="normal" in="SourceGraphic" in2="effect1_dropShadow_11_140" result="shape"/>
</filter>
<linearGradient id="paint0_linear_11_140" x1="54" y1="0" x2="54" y2="100" gradientUnits="userSpaceOnUse">
<stop stop-color="#922B94"/>
<stop offset="1" stop-color="#0057A8"/>
</linearGradient>
</defs>
</svg>
