<svg width="108" height="108" viewBox="0 0 108 108" fill="none" xmlns="http://www.w3.org/2000/svg">
<g filter="url(#filter0_d_11_144)">
<circle cx="54" cy="50" r="50" fill="url(#paint0_linear_11_144)"/>
<path fill-rule="evenodd" clip-rule="evenodd" d="M92.2401 53.2377C89.1899 56.7339 83.6473 61.7879 81.8376 62.724C80.1378 63.603 79.9049 63.0315 80.4369 59.2838C80.8908 56.0863 80.7097 53.1635 80.032 52.7446C79.6275 52.4946 79.3201 53.2244 78.126 57.2674C77.3456 59.9108 77.0176 60.4573 75.2333 62.0882C74.1264 63.0996 72.7135 64.0387 72.0937 64.1749C71.4742 64.3112 70.5259 64.7693 69.9871 65.1932C69.1443 65.8561 68.6873 65.9268 66.723 65.6989C65.467 65.5532 64.1892 65.1837 63.8829 64.8777C63.1781 64.1726 62.8087 64.409 62.0214 66.0676C61.4502 67.2716 61.4453 67.5041 61.9723 68.5231C62.2923 69.1422 62.7451 69.7666 62.978 69.9105C63.4164 70.1814 66.2782 69.4249 66.9167 68.8698C67.1154 68.697 67.9913 68.5555 68.8631 68.5555C69.8821 68.5555 70.8003 68.2784 71.435 67.7792C72.2493 67.1388 72.7463 67.0459 74.2782 67.2491C76.094 67.49 78.0963 66.869 82.7116 64.6327C85.3695 63.345 95.6648 52.0783 95.6648 50.4573C95.6648 49.4858 95.1458 49.9074 92.2401 53.2377ZM12.3315 51.8538C12.3315 52.5204 15.9758 56.9246 18.1295 58.861C20.1261 60.6563 25.0089 63.9892 25.642 63.9892C25.8342 63.9892 26.4415 64.579 26.9913 65.3001C29.4327 68.501 33.8658 70.2613 41.4411 71.0383C48.58 71.7704 52.6451 71.7541 54.5648 70.9862C55.408 70.6487 56.61 70.4478 57.236 70.5399C57.8619 70.6316 58.3741 70.5357 58.3741 70.3271C58.3741 70.1182 58.6584 69.6331 59.0062 69.2491C59.9388 68.2183 59.4457 68.0509 57.0549 68.5859C55.177 69.006 54.8399 68.9896 54.3011 68.4504C53.7356 67.8854 53.5514 67.9554 51.9887 69.3313C51.0545 70.1532 50.1371 70.7313 49.9502 70.6156C49.763 70.4999 49.6941 70.2689 49.7973 70.1023C50.4616 69.0273 44.5263 67.1936 43.4023 68.1262C43.0267 68.4379 42.5769 68.3016 41.6009 67.5806C40.7684 66.9656 40.005 66.6932 39.4822 66.8241C37.9719 67.2016 34.8391 66.318 32.7345 64.9207C30.634 63.5261 30.4061 63.1673 29.2417 59.423C28.4031 56.7267 27.6044 55.1601 27.1972 55.4116C27.0199 55.5212 26.5834 56.8001 26.2273 58.2529C25.8715 59.7061 25.3391 61.2057 25.045 61.5859C24.5385 62.2396 24.4567 62.2156 23.5214 61.1354C19.236 56.1852 17.6675 54.6532 15.3456 53.1513C12.4571 51.2826 12.3315 51.2286 12.3315 51.8538Z" fill="white"/>
</g>
<defs>
<filter id="filter0_d_11_144" x="0" y="0" width="108" height="108" filterUnits="userSpaceOnUse" color-interpolation-filters="sRGB">
<feFlood flood-opacity="0" result="BackgroundImageFix"/>
<feColorMatrix in="SourceAlpha" type="matrix" values="0 0 0 0 0 0 0 0 0 0 0 0 0 0 0 0 0 0 127 0" result="hardAlpha"/>
<feOffset dy="4"/>
<feGaussianBlur stdDeviation="2"/>
<feComposite in2="hardAlpha" operator="out"/>
<feColorMatrix type="matrix" values="0 0 0 0 0 0 0 0 0 0 0 0 0 0 0 0 0 0 0.25 0"/>
<feBlend mode="normal" in2="BackgroundImageFix" result="effect1_dropShadow_11_144"/>
<feBlend mode="normal" in="SourceGraphic" in2="effect1_dropShadow_11_144" result="shape"/>
</filter>
<linearGradient id="paint0_linear_11_144" x1="54" y1="0" x2="54" y2="100" gradientUnits="userSpaceOnUse">
<stop stop-color="#FB40FF"/>
<stop offset="1" stop-color="#0057A8"/>
</linearGradient>
</defs>
</svg>
