<svg width="142" height="142" viewBox="0 0 142 142" fill="none" xmlns="http://www.w3.org/2000/svg">
<path d="M57.2507 61.1791L51.6528 66.777C48.7548 69.5962 46.9316 73.3384 46.4977 77.3581C46.0638 81.3778 47.0464 85.4229 49.2761 88.7955L37.6088 100.463L41.5372 104.391L53.1848 92.7435C56.5561 94.9919 60.6104 95.9837 64.6389 95.5457C68.6674 95.1076 72.4137 93.2676 75.223 90.3472L80.8209 84.7493L57.2507 61.1791Z" fill="white"/>
<path d="M89.1294 48.9422C85.7488 46.707 81.6928 45.725 77.6642 46.1662C73.6355 46.6075 69.8882 48.4442 67.0716 51.3581L61.179 57.2507L84.7493 80.8209L90.6418 74.9284C93.5622 72.1191 95.4022 68.3727 95.8403 64.3443C96.2783 60.3158 95.2865 56.2615 93.0381 52.8902L104.391 41.5372L100.463 37.6088L89.1294 48.9422Z" fill="white"/>
</svg>
