<svg width="12" height="14" viewBox="0 0 12 14" fill="none" xmlns="http://www.w3.org/2000/svg">
<path d="M7.368 1.22204C7.2656 1.13835 7.14763 1.07581 7.0209 1.03802C6.89416 1.00024 6.7612 0.987967 6.62969 1.00192C6.49819 1.01587 6.37076 1.05576 6.25477 1.11929C6.13879 1.18283 6.03656 1.26873 5.954 1.37204L3.058 5.00004H4.338L6.735 1.99604L7.505 2.62504L5.575 5.00004H6.863L8.28 3.25604L9.998 4.65904L9.7 5.00004H10C10.2982 4.99972 10.5948 5.04387 10.88 5.13104C10.9889 4.92667 11.0236 4.69082 10.978 4.46376C10.9324 4.2367 10.8094 4.03251 10.63 3.88604L7.368 1.22204ZM1 5.50004C1 5.36743 1.05268 5.24025 1.14645 5.14648C1.24021 5.05271 1.36739 5.00004 1.5 5.00004H2.058L2.853 4.00004H1.5C1.10218 4.00004 0.720644 4.15807 0.43934 4.43938C0.158035 4.72068 0 5.10221 0 5.50004V11.5C0 12.1631 0.263392 12.799 0.732233 13.2678C1.20107 13.7366 1.83696 14 2.5 14H10C10.5304 14 11.0391 13.7893 11.4142 13.4142C11.7893 13.0392 12 12.5305 12 12V8.00004C12 7.4696 11.7893 6.9609 11.4142 6.58582C11.0391 6.21075 10.5304 6.00004 10 6.00004H1.5C1.36739 6.00004 1.24021 5.94736 1.14645 5.85359C1.05268 5.75982 1 5.63264 1 5.50004ZM8.5 10H9.5C9.63261 10 9.75979 10.0527 9.85355 10.1465C9.94732 10.2403 10 10.3674 10 10.5C10 10.6326 9.94732 10.7598 9.85355 10.8536C9.75979 10.9474 9.63261 11 9.5 11H8.5C8.36739 11 8.24021 10.9474 8.14645 10.8536C8.05268 10.7598 8 10.6326 8 10.5C8 10.3674 8.05268 10.2403 8.14645 10.1465C8.24021 10.0527 8.36739 10 8.5 10Z" fill="#3B82F6"/>
</svg>
